<svg xmlns="http://www.w3.org/2000/svg" viewBox="0 0 1400 2100">
  <style>
    @import url('https://fonts.googleapis.com/css2?family=JetBrains+Mono:wght@400;500;600;700&amp;display=swap');
    text { font-family: 'JetBrains Mono', 'Noto Sans SC', 'PingFang SC', sans-serif; }
  </style>
  <defs>
    <pattern id="grid" width="40" height="40" patternUnits="userSpaceOnUse">
      <path d="M 40 0 L 0 0 0 40" fill="none" stroke="#1e293b" stroke-width="0.5"/>
    </pattern>
    <marker id="arrow" markerWidth="10" markerHeight="7" refX="9" refY="3.5" orient="auto">
      <polygon points="0 0, 10 3.5, 0 7" fill="#64748b"/>
    </marker>
    <marker id="arrow-green" markerWidth="10" markerHeight="7" refX="9" refY="3.5" orient="auto">
      <polygon points="0 0, 10 3.5, 0 7" fill="#34d399"/>
    </marker>
    <marker id="arrow-cyan" markerWidth="10" markerHeight="7" refX="9" refY="3.5" orient="auto">
      <polygon points="0 0, 10 3.5, 0 7" fill="#22d3ee"/>
    </marker>
    <marker id="arrow-amber" markerWidth="10" markerHeight="7" refX="9" refY="3.5" orient="auto">
      <polygon points="0 0, 10 3.5, 0 7" fill="#fbbf24"/>
    </marker>
    <marker id="arrow-rose" markerWidth="10" markerHeight="7" refX="9" refY="3.5" orient="auto">
      <polygon points="0 0, 10 3.5, 0 7" fill="#fb7185"/>
    </marker>
  </defs>

  <!-- Background -->
  <rect width="100%" height="100%" fill="#0f172a"/>
  <rect width="100%" height="100%" fill="url(#grid)"/>

  <!-- Title -->
  <text x="30" y="40" fill="#e2e8f0" font-size="20" font-weight="700" letter-spacing="1">织梦机 v1.2 核心交互流程图</text>
  <text x="30" y="62" fill="#94a3b8" font-size="11" font-weight="400">5 个核心模块的用户交互流程 | Design Lead · 2026-07</text>

  <!-- ================================================================== -->
  <!-- SECTION 1: 书架与新建流程 (Swim Lane 1) -->
  <!-- ================================================================== -->
  <rect x="30" y="85" width="1340" height="360" rx="12" fill="none" stroke="#fbbf24" stroke-width="1" stroke-dasharray="8,4"/>
  <text x="45" y="105" fill="#fbbf24" font-size="12" font-weight="600">模块一：书架导航 &amp; 新建流程</text>

  <!-- Start: 进入书架 -->
  <rect x="90" y="120" width="160" height="50" rx="25" fill="#0f172a"/>
  <rect x="90" y="120" width="160" height="50" rx="25" fill="rgba(59,130,246,0.3)" stroke="#60a5fa" stroke-width="1.5"/>
  <text x="170" y="150" fill="white" font-size="12" font-weight="600" text-anchor="middle">应用启动</text>

  <!-- Arrow to 书架界面 -->
  <line x1="250" y1="145" x2="320" y2="145" stroke="#64748b" marker-end="url(#arrow)"/>

  <!-- 书架界面 -->
  <rect x="320" y="120" width="180" height="50" rx="6" fill="#0f172a"/>
  <rect x="320" y="120" width="180" height="50" rx="6" fill="rgba(8,51,68,0.4)" stroke="#22d3ee" stroke-width="1.5"/>
  <text x="410" y="140" fill="white" font-size="11" font-weight="600" text-anchor="middle">书架界面</text>
  <text x="410" y="157" fill="#94a3b8" font-size="9" text-anchor="middle">卡片网格 · 搜索 · 筛选 · 排序</text>

  <!-- Decision: 进入项目 or 新建 -->
  <line x1="500" y1="145" x2="560" y2="145" stroke="#64748b" marker-end="url(#arrow)"/>
  <g transform="translate(620, 145)">
    <polygon points="0,-30 45,0 0,30 -45,0" fill="#0f172a"/>
    <polygon points="0,-30 45,0 0,30 -45,0" fill="rgba(120,53,15,0.3)" stroke="#fbbf24" stroke-width="1.5"/>
    <text y="4" fill="white" font-size="9" font-weight="600" text-anchor="middle">用户操作?</text>
  </g>

  <!-- 点击作品 → 进入项目 -->
  <line x1="665" y1="145" x2="740" y2="145" stroke="#34d399" marker-end="url(#arrow-green)"/>
  <text x="690" y="137" fill="#34d399" font-size="9">点击作品</text>
  <rect x="740" y="120" width="160" height="50" rx="6" fill="#0f172a"/>
  <rect x="740" y="120" width="160" height="50" rx="6" fill="rgba(6,78,59,0.4)" stroke="#34d399" stroke-width="1.5"/>
  <text x="820" y="140" fill="white" font-size="11" font-weight="600" text-anchor="middle">进入项目</text>
  <text x="820" y="157" fill="#94a3b8" font-size="9" text-anchor="middle">→ 编辑器 (文档 tab)</text>

  <!-- 点击新建 → 向导弹窗 -->
  <line x1="620" y1="175" x2="620" y2="215" stroke="#64748b" marker-end="url(#arrow)"/>
  <text x="605" y="200" fill="#fb7185" font-size="9">点击「+ 新建」</text>

  <rect x="530" y="215" width="180" height="50" rx="6" fill="#0f172a"/>
  <rect x="530" y="215" width="180" height="50" rx="6" fill="rgba(8,51,68,0.4)" stroke="#22d3ee" stroke-width="1.5"/>
  <text x="620" y="235" fill="white" font-size="11" font-weight="600" text-anchor="middle">新建向导弹窗</text>
  <text x="620" y="252" fill="#94a3b8" font-size="9" text-anchor="middle">名称 · 体裁 · 初始模板</text>

  <!-- 确认 or 取消 -->
  <line x1="620" y1="265" x2="620" y2="295" stroke="#64748b" marker-end="url(#arrow)"/>
  <g transform="translate(620, 300)">
    <polygon points="0,-22 35,0 0,22 -35,0" fill="#0f172a"/>
    <polygon points="0,-22 35,0 0,22 -35,0" fill="rgba(120,53,15,0.3)" stroke="#fbbf24" stroke-width="1.5"/>
    <text y="4" fill="white" font-size="9" font-weight="600" text-anchor="middle">确认?</text>
  </g>

  <!-- 确认 → 创建项目 -->
  <line x1="655" y1="300" x2="730" y2="300" stroke="#34d399" marker-end="url(#arrow-green)"/>
  <text x="680" y="292" fill="#34d399" font-size="9">确认</text>
  <rect x="730" y="278" width="170" height="45" rx="6" fill="#0f172a"/>
  <rect x="730" y="278" width="170" height="45" rx="6" fill="rgba(6,78,59,0.4)" stroke="#34d399" stroke-width="1.5"/>
  <text x="815" y="298" fill="white" font-size="11" font-weight="600" text-anchor="middle">创建项目 + 预设对象</text>
  <text x="815" y="313" fill="#94a3b8" font-size="9" text-anchor="middle">→ 导航到编辑器</text>

  <!-- 取消 → 回到书架 -->
  <line x1="585" y1="300" x2="500" y2="300" stroke="#fb7185" marker-end="url(#arrow-rose)"/>
  <text x="530" y="292" fill="#fb7185" font-size="9">取消 / Esc</text>

  <!-- 快速创建捷径 -->
  <line x1="500" y1="195" x2="500" y2="355" stroke="#fbbf24" stroke-width="1" stroke-dasharray="4,4" marker-end="url(#arrow-amber)"/>
  <rect x="405" y="330" width="190" height="45" rx="6" fill="#0f172a"/>
  <rect x="405" y="330" width="190" height="45" rx="6" fill="rgba(120,53,15,0.3)" stroke="#fbbf24" stroke-width="1" stroke-dasharray="4,3"/>
  <text x="500" y="349" fill="white" font-size="10" font-weight="600" text-anchor="middle">Ctrl+点击 → 快速创建</text>
  <text x="500" y="364" fill="#94a3b8" font-size="9" text-anchor="middle">跳过向导，使用上次体裁</text>

  <!-- 作品操作菜单 -->
  <rect x="740" y="355" width="190" height="45" rx="6" fill="#0f172a"/>
  <rect x="740" y="355" width="190" height="45" rx="6" fill="rgba(136,19,55,0.4)" stroke="#fb7185" stroke-width="1"/>
  <text x="835" y="374" fill="white" font-size="10" font-weight="600" text-anchor="middle">作品操作菜单 (每张卡片)</text>
  <text x="835" y="389" fill="#94a3b8" font-size="9" text-anchor="middle">改名 · 改体裁 · 换封面 · 删除</text>
  <line x1="740" y1="340" x2="740" y2="355" stroke="#fb7185" stroke-width="1" stroke-dasharray="3,3"/>

  <!-- ================================================================== -->
  <!-- SECTION 2: 编辑器交互 (Swim Lane 2) -->
  <!-- ================================================================== -->
  <rect x="30" y="460" width="1340" height="460" rx="12" fill="none" stroke="#22d3ee" stroke-width="1" stroke-dasharray="8,4"/>
  <text x="45" y="480" fill="#22d3ee" font-size="12" font-weight="600">模块二：编辑器交互</text>

  <!-- 编辑器初始 -->
  <rect x="90" y="498" width="160" height="50" rx="6" fill="#0f172a"/>
  <rect x="90" y="498" width="160" height="50" rx="6" fill="rgba(8,51,68,0.4)" stroke="#22d3ee" stroke-width="1.5"/>
  <text x="170" y="518" fill="white" font-size="11" font-weight="600" text-anchor="middle">编辑器</text>
  <text x="170" y="535" fill="#94a3b8" font-size="9" text-anchor="middle">默认: 源码高亮模式</text>

  <!-- 模式切换决策 -->
  <line x1="250" y1="523" x2="310" y2="523" stroke="#64748b" marker-end="url(#arrow)"/>
  <g transform="translate(370, 523)">
    <polygon points="0,-25 38,0 0,25 -38,0" fill="#0f172a"/>
    <polygon points="0,-25 38,0 0,25 -38,0" fill="rgba(120,53,15,0.3)" stroke="#fbbf24" stroke-width="1.5"/>
    <text y="4" fill="white" font-size="9" font-weight="600" text-anchor="middle">编辑模式?</text>
  </g>

  <!-- 源码模式（默认） -->
  <line x1="408" y1="508" x2="480" y2="508" stroke="#22d3ee" marker-end="url(#arrow-cyan)"/>
  <text x="435" y="500" fill="#22d3ee" font-size="9">源码 ⭐ 默认</text>
  <rect x="480" y="490" width="200" height="50" rx="6" fill="#0f172a"/>
  <rect x="480" y="490" width="200" height="50" rx="6" fill="rgba(8,51,68,0.4)" stroke="#22d3ee" stroke-width="1.5"/>
  <text x="580" y="508" fill="white" font-size="10" font-weight="600" text-anchor="middle">源码高亮模式</text>
  <text x="580" y="525" fill="#94a3b8" font-size="9" text-anchor="middle">语法着色 · 实时渲染 · MD 快捷输入</text>

  <!-- 预览模式 -->
  <line x1="408" y1="535" x2="480" y2="580" stroke="#64748b" marker-end="url(#arrow)"/>
  <text x="430" y="565" fill="#94a3b8" font-size="9">预览</text>
  <rect x="480" y="565" width="200" height="45" rx="6" fill="#0f172a"/>
  <rect x="480" y="565" width="200" height="45" rx="6" fill="rgba(30,41,59,0.5)" stroke="#94a3b8" stroke-width="1"/>
  <text x="580" y="583" fill="white" font-size="10" font-weight="600" text-anchor="middle">阅读模式</text>
  <text x="580" y="598" fill="#94a3b8" font-size="9" text-anchor="middle">纯净阅读 · 不可编辑</text>

  <!-- WYSIWYG 降级 -->
  <line x1="408" y1="540" x2="480" y2="635" stroke="#fb7185" stroke-dasharray="4,3" marker-end="url(#arrow-rose)"/>
  <text x="430" y="620" fill="#fb7185" font-size="9">WYSIWYG (降级)</text>
  <rect x="480" y="635" width="200" height="45" rx="6" fill="#0f172a"/>
  <rect x="480" y="635" width="200" height="45" rx="6" fill="rgba(136,19,55,0.3)" stroke="#fb7185" stroke-width="1" stroke-dasharray="3,3"/>
  <text x="580" y="653" fill="white" font-size="10" font-weight="600" text-anchor="middle">富文本模式 (可选)</text>
  <text x="580" y="668" fill="#94a3b8" font-size="9" text-anchor="middle">TipTap 所见即所得</text>

  <!-- 自动保存流程 -->
  <line x1="680" y1="515" x2="750" y2="515" stroke="#64748b" marker-end="url(#arrow)"/>
  <rect x="750" y="495" width="200" height="45" rx="6" fill="#0f172a"/>
  <rect x="750" y="495" width="200" height="45" rx="6" fill="rgba(6,78,59,0.4)" stroke="#34d399" stroke-width="1.5"/>
  <text x="850" y="513" fill="white" font-size="10" font-weight="600" text-anchor="middle">自动保存流程</text>
  <text x="850" y="530" fill="#94a3b8" font-size="9" text-anchor="middle">500ms debounce → API 调用</text>

  <!-- 保存状态指示 -->
  <line x1="750" y1="540" x2="750" y2="575" stroke="#64748b" marker-end="url(#arrow)"/>
  <g transform="translate(850, 575)">
    <polygon points="0,-20 30,0 0,20 -30,0" fill="#0f172a"/>
    <polygon points="0,-20 30,0 0,20 -30,0" fill="rgba(120,53,15,0.3)" stroke="#fbbf24" stroke-width="1.5"/>
    <text y="4" fill="white" font-size="9" font-weight="600" text-anchor="middle">保存状态?</text>
  </g>

  <text x="770" y="570" fill="#34d399" font-size="9">成功</text>
  <line x1="820" y1="575" x2="820" y2="620" stroke="#34d399" marker-end="url(#arrow-green)"/>
  <rect x="760" y="620" width="120" height="35" rx="4" fill="#0f172a"/>
  <rect x="760" y="620" width="120" height="35" rx="4" fill="rgba(6,78,59,0.3)" stroke="#34d399" stroke-width="1"/>
  <text x="820" y="642" fill="white" font-size="9" font-weight="600" text-anchor="middle">已保存 ✓（1.5s 淡出）</text>

  <text x="860" y="588" fill="#fb7185" font-size="9">失败</text>
  <line x1="880" y1="575" x2="880" y2="620" stroke="#fb7185" marker-end="url(#arrow-rose)"/>
  <rect x="840" y="620" width="120" height="35" rx="4" fill="#0f172a"/>
  <rect x="840" y="620" width="120" height="35" rx="4" fill="rgba(136,19,55,0.3)" stroke="#fb7185" stroke-width="1"/>
  <text x="900" y="642" fill="white" font-size="9" font-weight="600" text-anchor="middle">未保存 ●（点击重试）</text>

  <!-- WikiLink 交互 -->
  <rect x="750" y="680" width="220" height="55" rx="6" fill="#0f172a"/>
  <rect x="750" y="680" width="220" height="55" rx="6" fill="rgba(59,130,246,0.3)" stroke="#60a5fa" stroke-width="1.5"/>
  <text x="860" y="700" fill="white" font-size="10" font-weight="600" text-anchor="middle">[[WikiLink]] 悬停交互</text>
  <text x="860" y="716" fill="#94a3b8" font-size="9" text-anchor="middle">Tooltip: 类型+状态+摘要预览</text>
  <text x="860" y="728" fill="#94a3b8" font-size="9" text-anchor="middle">内联「跳转」「快速创建」按钮</text>
  <line x1="750" y1="705" x2="750" y2="680" stroke="#60a5fa" stroke-width="1" stroke-dasharray="3,3"/>

  <!-- 双击 WikiLink -->
  <rect x="1020" y="680" width="220" height="55" rx="6" fill="#0f172a"/>
  <rect x="1020" y="680" width="220" height="55" rx="6" fill="rgba(59,130,246,0.3)" stroke="#60a5fa" stroke-width="1.5"/>
  <text x="1130" y="700" fill="white" font-size="10" font-weight="600" text-anchor="middle">双击 WikiLink</text>
  <text x="1130" y="716" fill="#94a3b8" font-size="9" text-anchor="middle">存在 → 滑转到引用处 (peek)</text>
  <text x="1130" y="728" fill="#94a3b8" font-size="9" text-anchor="middle">不存在 → 弹出创建气泡</text>

  <line x1="970" y1="707" x2="1020" y2="707" stroke="#60a5fa" marker-end="url(#arrow)"/>

  <!-- 属性条交互 -->
  <rect x="750" y="760" width="220" height="55" rx="6" fill="#0f172a"/>
  <rect x="750" y="760" width="220" height="55" rx="6" fill="rgba(251,146,60,0.3)" stroke="#fb923c" stroke-width="1"/>
  <text x="860" y="780" fill="white" font-size="10" font-weight="600" text-anchor="middle">属性条 (压缩显示)</text>
  <text x="860" y="796" fill="#94a3b8" font-size="9" text-anchor="middle">类型 icon badge · 正典彩色条</text>
  <text x="860" y="808" fill="#94a3b8" font-size="9" text-anchor="middle">状态圆点 · 点击展开 inline 编辑</text>

  <!-- ================================================================== -->
  <!-- SECTION 3: 画板交互 (Swim Lane 3) -->
  <!-- ================================================================== -->
  <rect x="30" y="935" width="1340" height="460" rx="12" fill="none" stroke="#34d399" stroke-width="1" stroke-dasharray="8,4"/>
  <text x="45" y="955" fill="#34d399" font-size="12" font-weight="600">模块三：画板交互增强</text>

  <!-- 画板入口 -->
  <rect x="90" y="975" width="160" height="50" rx="6" fill="#0f172a"/>
  <rect x="90" y="975" width="160" height="50" rx="6" fill="rgba(8,51,68,0.4)" stroke="#22d3ee" stroke-width="1.5"/>
  <text x="170" y="995" fill="white" font-size="11" font-weight="600" text-anchor="middle">画板视图</text>
  <text x="170" y="1012" fill="#94a3b8" font-size="9" text-anchor="middle">3 种画板 tab</text>

  <!-- 工具决策 -->
  <line x1="250" y1="1000" x2="310" y2="1000" stroke="#64748b" marker-end="url(#arrow)"/>
  <g transform="translate(370, 1000)">
    <polygon points="0,-28 42,0 0,28 -42,0" fill="#0f172a"/>
    <polygon points="0,-28 42,0 0,28 -42,0" fill="rgba(120,53,15,0.3)" stroke="#fbbf24" stroke-width="1.5"/>
    <text y="4" fill="white" font-size="9" font-weight="600" text-anchor="middle">用户操作?</text>
  </g>

  <!-- 缩放操作 -->
  <line x1="412" y1="985" x2="480" y2="985" stroke="#34d399" marker-end="url(#arrow-green)"/>
  <text x="440" y="977" fill="#34d399" font-size="9">缩放</text>
  <rect x="480" y="970" width="220" height="45" rx="6" fill="#0f172a"/>
  <rect x="480" y="970" width="220" height="45" rx="6" fill="rgba(6,78,59,0.4)" stroke="#34d399" stroke-width="1.5"/>
  <text x="590" y="988" fill="white" font-size="10" font-weight="600" text-anchor="middle">缩放控件 (右下角浮动)</text>
  <text x="590" y="1003" fill="#94a3b8" font-size="9" text-anchor="middle">25% 步进 · Ctrl+滚轮 · Ctrl+0 适应</text>

  <!-- 框选操作 -->
  <line x1="412" y1="1012" x2="480" y2="1040" stroke="#64748b" marker-end="url(#arrow)"/>
  <text x="435" y="1033" fill="#94a3b8" font-size="9">框选 / 拖拽</text>
  <rect x="480" y="1040" width="220" height="60" rx="6" fill="#0f172a"/>
  <rect x="480" y="1040" width="220" height="60" rx="6" fill="rgba(59,130,246,0.3)" stroke="#60a5fa" stroke-width="1.5"/>
  <text x="590" y="1058" fill="white" font-size="10" font-weight="600" text-anchor="middle">框选 (Marquee Select)</text>
  <text x="590" y="1074" fill="#94a3b8" font-size="9" text-anchor="middle">空白处拖拽画选区 · 半透明蓝框</text>
  <text x="590" y="1088" fill="#94a3b8" font-size="9" text-anchor="middle">选中的节点可整体拖拽移动</text>

  <!-- 连线操作 -->
  <line x1="412" y1="1015" x2="480" y2="1125" stroke="#fbbf24" marker-end="url(#arrow-amber)"/>
  <text x="435" y="1108" fill="#fbbf24" font-size="9">连线</text>
  <rect x="480" y="1125" width="220" height="60" rx="6" fill="#0f172a"/>
  <rect x="480" y="1125" width="220" height="60" rx="6" fill="rgba(120,53,15,0.3)" stroke="#fbbf24" stroke-width="1.5"/>
  <text x="590" y="1142" fill="white" font-size="10" font-weight="600" text-anchor="middle">连线交互改进</text>
  <text x="590" y="1158" fill="#94a3b8" font-size="9" text-anchor="middle">节点拖出连线 → 目标高亮提示</text>
  <text x="590" y="1172" fill="#94a3b8" font-size="9" text-anchor="middle">内联 quick-pick bar 选择类型</text>

  <!-- 时间线拖拽 -->
  <rect x="750" y="1040" width="250" height="60" rx="6" fill="#0f172a"/>
  <rect x="750" y="1040" width="250" height="60" rx="6" fill="rgba(6,78,59,0.4)" stroke="#34d399" stroke-width="1.5"/>
  <text x="875" y="1058" fill="white" font-size="10" font-weight="600" text-anchor="middle">时间线拖拽重排</text>
  <text x="875" y="1074" fill="#94a3b8" font-size="9" text-anchor="middle">待排事件 → 拖到主轴插入</text>
  <text x="875" y="1088" fill="#94a3b8" font-size="9" text-anchor="middle">节点间拖拽排序 · 关键转折星标 toggle</text>
  <line x1="700" y1="1070" x2="750" y2="1070" stroke="#64748b" marker-end="url(#arrow)"/>

  <!-- 无限画布 -->
  <rect x="750" y="1125" width="250" height="45" rx="6" fill="#0f172a"/>
  <rect x="750" y="1125" width="250" height="45" rx="6" fill="rgba(30,41,59,0.5)" stroke="#94a3b8" stroke-width="1"/>
  <text x="875" y="1143" fill="white" font-size="10" font-weight="600" text-anchor="middle">无限画布 · 自适应网格</text>
  <text x="875" y="1158" fill="#94a3b8" font-size="9" text-anchor="middle">超大画板移除边界限制</text>
  <line x1="700" y1="1145" x2="750" y2="1145" stroke="#64748b" marker-end="url(#arrow)"/>

  <!-- 对象池抽屉 -->
  <rect x="480" y="1210" width="220" height="55" rx="6" fill="#0f172a"/>
  <rect x="480" y="1210" width="220" height="55" rx="6" fill="rgba(59,130,246,0.3)" stroke="#60a5fa" stroke-width="1.5"/>
  <text x="590" y="1228" fill="white" font-size="10" font-weight="600" text-anchor="middle">对象池浮动抽屉</text>
  <text x="590" y="1244" fill="#94a3b8" font-size="9" text-anchor="middle">侧栏展开浮动抽屉 · 搜索即时过滤</text>
  <text x="590" y="1256" fill="#94a3b8" font-size="9" text-anchor="middle">拖拽到画板 → 定位在释放点</text>
  <line x1="700" y1="1185" x2="700" y2="1210" stroke="#64748b"/>

  <!-- 工具侧栏分组 -->
  <rect x="750" y="1210" width="250" height="55" rx="6" fill="#0f172a"/>
  <rect x="750" y="1210" width="250" height="55" rx="6" fill="rgba(251,146,60,0.3)" stroke="#fb923c" stroke-width="1"/>
  <text x="875" y="1228" fill="white" font-size="10" font-weight="600" text-anchor="middle">工具侧栏分组优化</text>
  <text x="875" y="1244" fill="#94a3b8" font-size="9" text-anchor="middle">选择组 / 创建组 / 连线组 / 视图组</text>
  <text x="875" y="1256" fill="#94a3b8" font-size="9" text-anchor="middle">新增撤销/重做按钮</text>

  <!-- 画板 tab 切换 -->
  <rect x="90" y="1210" width="250" height="55" rx="6" fill="#0f172a"/>
  <rect x="90" y="1210" width="250" height="55" rx="6" fill="rgba(8,51,68,0.4)" stroke="#22d3ee" stroke-width="1.5"/>
  <text x="215" y="1228" fill="white" font-size="10" font-weight="600" text-anchor="middle">画板 Tab 切换</text>
  <text x="215" y="1244" fill="#94a3b8" font-size="9" text-anchor="middle">角色关系图 · 时间线 · 设定推演图</text>
  <text x="215" y="1256" fill="#94a3b8" font-size="9" text-anchor="middle">每个 tab 独立状态 (位置/缩放/连线)</text>
  <line x1="170" y1="1025" x2="170" y2="1210" stroke="#64748b" marker-end="url(#arrow)"/>

  <!-- ================================================================== -->
  <!-- SECTION 4: 正典引导 (Swim Lane 4) -->
  <!-- ================================================================== -->
  <rect x="30" y="1410" width="1340" height="320" rx="12" fill="none" stroke="#a78bfa" stroke-width="1" stroke-dasharray="8,4"/>
  <text x="45" y="1430" fill="#a78bfa" font-size="12" font-weight="600">模块四：正典引导</text>

  <!-- 首次检测 -->
  <rect x="90" y="1450" width="180" height="50" rx="6" fill="#0f172a"/>
  <rect x="90" y="1450" width="180" height="50" rx="6" fill="rgba(76,29,149,0.4)" stroke="#a78bfa" stroke-width="1.5"/>
  <text x="180" y="1470" fill="white" font-size="11" font-weight="600" text-anchor="middle">首次使用检测</text>
  <text x="180" y="1487" fill="#94a3b8" font-size="9" text-anchor="middle">localStorage 标记</text>

  <line x1="270" y1="1475" x2="330" y2="1475" stroke="#64748b" marker-end="url(#arrow)"/>

  <!-- 决策：是否首次 -->
  <g transform="translate(410, 1475)">
    <polygon points="0,-25 38,0 0,25 -38,0" fill="#0f172a"/>
    <polygon points="0,-25 38,0 0,25 -38,0" fill="rgba(120,53,15,0.3)" stroke="#fbbf24" stroke-width="1.5"/>
    <text y="4" fill="white" font-size="9" font-weight="600" text-anchor="middle">首次?</text>
  </g>

  <!-- 是 → 引导卡片 -->
  <line x1="448" y1="1460" x2="520" y2="1460" stroke="#34d399" marker-end="url(#arrow-green)"/>
  <text x="475" y="1452" fill="#34d399" font-size="9">是</text>
  <rect x="520" y="1440" width="240" height="55" rx="6" fill="#0f172a"/>
  <rect x="520" y="1440" width="240" height="55" rx="6" fill="rgba(76,29,149,0.4)" stroke="#a78bfa" stroke-width="1.5"/>
  <text x="640" y="1458" fill="white" font-size="10" font-weight="600" text-anchor="middle">正典入门卡片 (弹出)</text>
  <text x="640" y="1474" fill="#94a3b8" font-size="9" text-anchor="middle">解释 4 级正典含义</text>
  <text x="640" y="1486" fill="#94a3b8" font-size="9" text-anchor="middle">[不再显示] [进入手册] [开始使用]</text>

  <!-- 否 → 跳过 -->
  <line x1="410" y1="1500" x2="410" y2="1540" stroke="#64748b" marker-end="url(#arrow)"/>
  <text x="395" y="1525" fill="#94a3b8" font-size="9">否 (已有标记)</text>
  <rect x="350" y="1540" width="120" height="40" rx="4" fill="#0f172a"/>
  <rect x="350" y="1540" width="120" height="40" rx="4" fill="rgba(30,41,59,0.5)" stroke="#94a3b8" stroke-width="1"/>
  <text x="410" y="1565" fill="#94a3b8" font-size="10" text-anchor="middle">跳过引导</text>

  <!-- 卡片决策 -->
  <line x1="640" y1="1495" x2="640" y2="1530" stroke="#64748b" marker-end="url(#arrow)"/>
  <g transform="translate(640, 1540)">
    <polygon points="0,-20 30,0 0,20 -30,0" fill="#0f172a"/>
    <polygon points="0,-20 30,0 0,20 -30,0" fill="rgba(120,53,15,0.3)" stroke="#fbbf24" stroke-width="1.5"/>
    <text y="4" fill="white" font-size="9" font-weight="600" text-anchor="middle">用户选择?</text>
  </g>

  <!-- 进入手册 -->
  <line x1="670" y1="1540" x2="750" y2="1535" stroke="#a78bfa" marker-end="url(#arrow)"/>
  <text x="700" y="1532" fill="#a78bfa" font-size="9">进入手册</text>
  <rect x="750" y="1510" width="220" height="50" rx="6" fill="#0f172a"/>
  <rect x="750" y="1510" width="220" height="50" rx="6" fill="rgba(76,29,149,0.4)" stroke="#a78bfa" stroke-width="1.5"/>
  <text x="860" y="1530" fill="white" font-size="10" font-weight="600" text-anchor="middle">正典手册 (独立页面)</text>
  <text x="860" y="1547" fill="#94a3b8" font-size="9" text-anchor="middle">4 等级详情 · 各等级对象列表</text>

  <!-- 开始使用 → 正典操作 -->
  <line x1="640" y1="1560" x2="640" y2="1590" stroke="#34d399" marker-end="url(#arrow-green)"/>
  <text x="625" y="1580" fill="#34d399" font-size="9">开始使用</text>

  <rect x="520" y="1590" width="240" height="55" rx="6" fill="#0f172a"/>
  <rect x="520" y="1590" width="240" height="55" rx="6" fill="rgba(6,78,59,0.4)" stroke="#34d399" stroke-width="1.5"/>
  <text x="640" y="1608" fill="white" font-size="10" font-weight="600" text-anchor="middle">正典操作界面</text>
  <text x="640" y="1624" fill="#94a3b8" font-size="9" text-anchor="middle">收录 · 提升 · 降级 · 裁决 (新)</text>
  <text x="640" y="1636" fill="#94a3b8" font-size="9" text-anchor="middle">批量收录 · 判断记录时间线</text>

  <!-- 正典视觉标识 -->
  <rect x="830" y="1590" width="280" height="70" rx="6" fill="#0f172a"/>
  <rect x="830" y="1590" width="280" height="70" rx="6" fill="rgba(59,130,246,0.3)" stroke="#60a5fa" stroke-width="1.5"/>
  <text x="970" y="1608" fill="white" font-size="10" font-weight="600" text-anchor="middle">正典等级视觉标识 (处处可见)</text>
  <text x="970" y="1624" fill="#94a3b8" font-size="9" text-anchor="middle">● 核心(金) ● 项目(蓝) ● 草案(紫) ○ 未收录(灰)</text>
  <text x="970" y="1638" fill="#94a3b8" font-size="9" text-anchor="middle">大纲 · 卡片 · 画板节点 · Inspector 统一显示</text>
  <line x1="760" y1="1617" x2="830" y2="1617" stroke="#60a5fa" marker-end="url(#arrow)"/>

  <!-- 不再显示 -->
  <line x1="610" y1="1540" x2="410" y2="1540" stroke="#fb7185" stroke-dasharray="4,3" marker-end="url(#arrow-rose)"/>
  <text x="500" y="1532" fill="#fb7185" font-size="9">不再显示</text>

  <!-- ================================================================== -->
  <!-- SECTION 5: 全局导航结构 (Swim Lane 5) -->
  <!-- ================================================================== -->
  <rect x="30" y="1745" width="1340" height="320" rx="12" fill="none" stroke="#fb923c" stroke-width="1" stroke-dasharray="8,4"/>
  <text x="45" y="1765" fill="#fb923c" font-size="12" font-weight="600">模块五：全局导航结构</text>

  <!-- 应用根 -->
  <rect x="350" y="1785" width="160" height="50" rx="25" fill="#0f172a"/>
  <rect x="350" y="1785" width="160" height="50" rx="25" fill="rgba(59,130,246,0.3)" stroke="#60a5fa" stroke-width="1.5"/>
  <text x="430" y="1815" fill="white" font-size="12" font-weight="600" text-anchor="middle">织梦机</text>

  <!-- 书架 or 项目 -->
  <line x1="430" y1="1835" x2="430" y2="1870" stroke="#64748b" marker-end="url(#arrow)"/>
  <g transform="translate(430, 1880)">
    <polygon points="0,-22 35,0 0,22 -35,0" fill="#0f172a"/>
    <polygon points="0,-22 35,0 0,22 -35,0" fill="rgba(120,53,15,0.3)" stroke="#fbbf24" stroke-width="1.5"/>
    <text y="4" fill="white" font-size="9" font-weight="600" text-anchor="middle">当前视图?</text>
  </g>

  <!-- 书架 -->
  <line x1="395" y1="1880" x2="200" y2="1910" stroke="#22d3ee" marker-end="url(#arrow-cyan)"/>
  <text x="260" y="1898" fill="#22d3ee" font-size="9">书架</text>
  <rect x="60" y="1905" width="220" height="60" rx="6" fill="#0f172a"/>
  <rect x="60" y="1905" width="220" height="60" rx="6" fill="rgba(8,51,68,0.4)" stroke="#22d3ee" stroke-width="1.5"/>
  <text x="170" y="1923" fill="white" font-size="10" font-weight="600" text-anchor="middle">书架视图</text>
  <text x="170" y="1939" fill="#94a3b8" font-size="9" text-anchor="middle">卡片网格 · 搜索 · 筛选 · 排序</text>
  <text x="170" y="1951" fill="#94a3b8" font-size="9" text-anchor="middle">点击 → 进入项目 | 新建 → 向导弹窗</text>

  <!-- 项目内 -->
  <line x1="465" y1="1880" x2="600" y2="1880" stroke="#34d399" marker-end="url(#arrow-green)"/>
  <text x="520" y="1872" fill="#34d399" font-size="9">项目</text>

  <!-- Nav Bar -->
  <rect x="600" y="1855" width="300" height="50" rx="6" fill="#0f172a"/>
  <rect x="600" y="1855" width="300" height="50" rx="6" fill="rgba(6,78,59,0.4)" stroke="#34d399" stroke-width="1.5"/>
  <text x="750" y="1875" fill="white" font-size="10" font-weight="600" text-anchor="middle">导航栏 · Tab 切换</text>
  <text x="750" y="1892" fill="#94a3b8" font-size="9" text-anchor="middle">← 书架 | 文档 | 画板 | 设定集 | 判断记录 | 正典</text>

  <!-- 4 个子视图 -->
  <line x1="750" y1="1905" x2="750" y2="1935" stroke="#64748b" marker-end="url(#arrow)"/>

  <!-- 文档 -->
  <rect x="80" y="1945" width="150" height="55" rx="6" fill="#0f172a"/>
  <rect x="80" y="1945" width="150" height="55" rx="6" fill="rgba(8,51,68,0.4)" stroke="#22d3ee" stroke-width="1.5"/>
  <text x="155" y="1965" fill="white" font-size="10" font-weight="600" text-anchor="middle">文档视图</text>
  <text x="155" y="1981" fill="#94a3b8" font-size="9" text-anchor="middle">大纲 + 编辑器 + Inspector</text>
  <text x="155" y="1992" fill="#94a3b8" font-size="9" text-anchor="middle">源码/预览/WYSIWYG</text>

  <!-- 画板 -->
  <rect x="260" y="1945" width="150" height="55" rx="6" fill="#0f172a"/>
  <rect x="260" y="1945" width="150" height="55" rx="6" fill="rgba(6,78,59,0.4)" stroke="#34d399" stroke-width="1.5"/>
  <text x="335" y="1965" fill="white" font-size="10" font-weight="600" text-anchor="middle">画板视图</text>
  <text x="335" y="1981" fill="#94a3b8" font-size="9" text-anchor="middle">3 tab · 节点拖拽 · 连线</text>
  <text x="335" y="1992" fill="#94a3b8" font-size="9" text-anchor="middle">缩放 · 框选 · 时间线</text>

  <!-- 设定集 -->
  <rect x="440" y="1945" width="150" height="55" rx="6" fill="#0f172a"/>
  <rect x="440" y="1945" width="150" height="55" rx="6" fill="rgba(76,29,149,0.4)" stroke="#a78bfa" stroke-width="1.5"/>
  <text x="515" y="1965" fill="white" font-size="10" font-weight="600" text-anchor="middle">设定集</text>
  <text x="515" y="1981" fill="#94a3b8" font-size="9" text-anchor="middle">筛选列表 + 详情预览</text>
  <text x="515" y="1992" fill="#94a3b8" font-size="9" text-anchor="middle">正典提升/降级</text>

  <!-- 判断记录 -->
  <rect x="620" y="1945" width="150" height="55" rx="6" fill="#0f172a"/>
  <rect x="620" y="1945" width="150" height="55" rx="6" fill="rgba(251,146,60,0.3)" stroke="#fb923c" stroke-width="1"/>
  <text x="695" y="1965" fill="white" font-size="10" font-weight="600" text-anchor="middle">判断记录</text>
  <text x="695" y="1981" fill="#94a3b8" font-size="9" text-anchor="middle">操作日志 + 字段变更</text>
  <text x="695" y="1992" fill="#94a3b8" font-size="9" text-anchor="middle">对象/类型筛选</text>

  <!-- 正典手册（新增） -->
  <rect x="800" y="1945" width="170" height="55" rx="6" fill="#0f172a"/>
  <rect x="800" y="1945" width="170" height="55" rx="6" fill="rgba(76,29,149,0.4)" stroke="#a78bfa" stroke-width="1.5"/>
  <text x="885" y="1965" fill="white" font-size="10" font-weight="600" text-anchor="middle">正典手册 (新增)</text>
  <text x="885" y="1981" fill="#94a3b8" font-size="9" text-anchor="middle">4 等级详情 · 对象列表</text>
  <text x="885" y="1992" fill="#94a3b8" font-size="9" text-anchor="middle">从首次引导卡片进入</text>

  <!-- Tab 箭头连接 -->
  <line x1="230" y1="1935" x2="155" y2="1945" stroke="#64748b"/>
  <line x1="410" y1="1935" x2="335" y2="1945" stroke="#64748b"/>
  <line x1="590" y1="1935" x2="515" y2="1945" stroke="#64748b"/>
  <line x1="750" y1="1935" x2="695" y2="1945" stroke="#64748b"/>
  <line x1="750" y1="1935" x2="885" y2="1945" stroke="#64748b"/>

  <!-- Legend -->
  <rect x="1050" y="1790" width="300" height="110" rx="8" fill="#0f172a"/>
  <rect x="1050" y="1790" width="300" height="110" rx="8" fill="rgba(30,41,59,0.5)" stroke="#94a3b8" stroke-width="1"/>
  <text x="1200" y="1810" fill="#94a3b8" font-size="10" font-weight="600" text-anchor="middle">图例</text>
  <rect x="1065" y="1822" width="16" height="16" rx="25" fill="rgba(59,130,246,0.3)" stroke="#60a5fa" stroke-width="1.5"/>
  <text x="1090" y="1835" fill="#94a3b8" font-size="9">起始/终止</text>
  <rect x="1065" y="1845" width="16" height="16" rx="6" fill="rgba(8,51,68,0.4)" stroke="#22d3ee" stroke-width="1.5"/>
  <text x="1090" y="1858" fill="#94a3b8" font-size="9">处理/界面</text>
  <g transform="translate(1073, 1873)">
    <polygon points="0,-8 12,0 0,8 -12,0" fill="rgba(120,53,15,0.3)" stroke="#fbbf24" stroke-width="1.5"/>
  </g>
  <text x="1090" y="1880" fill="#94a3b8" font-size="9">决策节点</text>
  <line x1="1065" y1="1890" x2="1090" y2="1890" stroke="#34d399" marker-end="url(#arrow-green)"/>
  <text x="1095" y="1894" fill="#94a3b8" font-size="9">Happy Path</text>
</svg>